{"glyphs":{":":{"x_min":0,"x_max":256,"ha":256,"o":"m 71 68 q 71 97 93 118 q 115 139 145 139 q 175 139 196 119 q 217 99 217 70 q 217 42 195 21 q 173 0 143 0 q 113 0 92 20 q 71 40 71 68 z m 130 363 q 130 392 152 413 q 174 434 204 434 q 234 434 255 414 q 276 395 276 365 q 276 336 254 316 q 232 295 202 295 q 172 295 151 315 q 130 334 130 363 z"},"$":{"x_min":0,"x_max":514,"ha":514,"o":"m 320 392 l 368 572 q 336 569 312 546 q 288 524 280 489 q 271 443 320 392 z m 312 216 l 263 31 q 299 36 325 56 q 351 77 357 107 q 369 162 312 216 z m 527 585 q 518 496 507 444 q 499 438 485 437 q 470 436 462 439 q 461 463 459 480 q 457 497 451 516 q 446 536 434 549 q 422 562 405 568 l 352 366 l 355 364 l 366 357 l 378 350 q 381 348 389 342 q 398 336 402 333 l 414 323 q 422 317 427 313 q 432 308 438 302 q 444 296 449 290 q 454 283 458 277 q 475 250 481 227 q 487 204 480 171 q 465 97 394 41 q 333 -7 253 -9 l 230 -93 q 222 -98 191 -98 l 215 -8 q 167 -7 132 1 q 97 9 79 9 q 74 70 94 162 q 126 170 138 165 q 138 111 163 76 q 187 41 225 32 l 281 242 l 259 257 q 239 271 232 276 l 210 295 q 195 308 186 320 q 177 332 170 345 q 149 387 163 450 q 170 483 192 514 q 214 544 244 566 q 273 586 309 598 q 346 609 378 610 l 399 689 q 412 694 438 694 l 416 609 q 447 606 480 597 q 513 587 527 585 z"},"?":{"x_min":0,"x_max":430,"ha":430,"o":"m 238 570 q 236 560 237 545 q 237 530 234 516 q 230 498 214 486 q 197 475 176 475 q 157 475 143 491 q 129 507 135 533 q 140 558 156 577 q 172 596 203 619 q 256 658 340 658 q 420 658 458 616 q 496 574 481 505 q 478 489 471 474 q 464 459 457 448 q 450 437 437 424 l 415 402 q 407 395 390 382 l 366 365 l 342 348 q 327 338 317 331 q 308 323 294 309 q 281 294 272 274 q 263 254 257 229 l 254 216 q 250 196 243 189 q 236 182 216 182 q 199 182 194 190 q 190 198 193 216 l 196 231 q 201 252 205 266 q 209 279 219 302 q 230 325 250 348 q 270 371 298 394 q 359 442 375 512 q 384 560 372 591 q 360 622 323 622 q 292 622 267 606 q 242 591 238 570 z m 115 58 q 121 87 146 108 q 171 129 199 129 q 228 129 243 109 q 259 89 252 60 q 246 32 221 11 q 196 -10 168 -10 q 140 -10 124 10 q 108 30 115 58 z"},"<":{"x_min":0,"x_max":512,"ha":512,"o":"m 212 240 l 486 124 l 473 62 l 103 218 l 112 262 l 549 418 l 536 356 z"},"'":{"x_min":0,"x_max":215,"ha":215,"o":"m 126 411 l 113 415 q 119 585 121 591 q 125 610 145 628 q 165 645 193 645 q 212 645 221 639 q 229 634 229 625 q 229 617 228 608 q 226 601 207 554 l 170 461 l 152 417 z"},"=":{"x_min":0,"x_max":551,"ha":551,"o":"m 525 198 l 514 142 l 106 142 l 118 198 z m 552 323 l 540 266 l 132 266 l 145 323 z"},"a":{"x_min":0,"x_max":558,"ha":558,"o":"m 508 436 q 528 436 528 415 q 528 407 525 393 q 522 379 517 356 q 511 335 508 320 l 466 124 q 459 97 459 82 q 459 63 470 63 q 479 63 501 76 q 522 89 540 110 q 549 110 558 100 q 566 91 569 82 q 534 38 489 14 q 443 -10 391 -10 q 353 -10 341 23 q 338 31 338 47 q 338 72 346 107 l 351 125 l 347 127 q 305 64 254 27 q 203 -10 169 -10 q 123 -10 99 30 q 74 69 74 125 q 74 221 148 315 q 192 371 250 405 q 308 439 368 439 q 386 439 396 438 q 405 438 415 436 q 424 434 433 433 q 440 432 449 432 q 458 432 479 434 q 499 436 508 436 z m 364 230 q 375 258 384 295 q 392 333 395 355 l 397 378 q 394 397 363 397 q 332 397 303 375 q 274 353 251 314 q 228 275 214 228 q 200 181 200 138 q 200 114 211 99 q 222 84 244 84 q 267 84 296 121 q 325 158 364 230 z"},"L":{"x_min":0,"x_max":552,"ha":552,"o":"m 343 42 q 413 42 454 75 q 495 108 523 170 q 532 171 544 170 q 557 168 563 165 q 534 70 506 -2 q 419 0 391 0 l 177 0 l 29 -2 q 23 2 25 15 q 28 28 36 32 q 55 33 65 35 q 76 36 88 41 q 101 46 108 56 q 115 65 121 81 q 128 98 133 122 l 211 523 q 215 543 216 558 q 216 573 213 583 q 209 592 205 598 q 201 604 190 607 q 180 610 172 611 q 164 612 148 613 q 142 617 144 630 q 146 643 155 647 q 265 645 303 645 q 320 645 338 645 q 356 646 387 646 l 449 647 q 455 643 453 630 q 450 617 442 613 q 423 612 413 610 q 402 609 390 604 q 377 599 370 589 q 363 580 357 564 q 350 547 345 523 l 267 121 q 252 42 285 42 z"},"3":{"x_min":0,"x_max":514,"ha":514,"o":"m 359 570 q 344 570 332 568 q 321 566 306 561 q 291 555 279 541 q 267 526 258 505 q 247 476 231 460 q 215 444 187 444 q 171 444 164 453 q 157 462 157 475 q 157 493 167 509 q 177 525 199 547 q 263 610 385 610 q 423 610 451 601 q 478 593 492 578 q 505 563 511 548 q 517 532 517 514 q 517 445 445 390 q 424 375 397 363 q 444 359 469 330 q 495 301 495 257 q 495 205 470 159 q 445 113 408 76 q 365 33 312 12 q 258 -10 207 -10 q 173 -10 140 -1 q 106 7 83 21 q 61 35 61 57 q 61 62 62 68 q 65 83 81 97 q 97 111 118 111 q 134 111 146 104 q 157 97 162 91 q 166 84 171 74 q 176 65 179 60 q 183 54 190 46 q 197 39 207 35 q 217 31 230 31 q 250 31 273 42 q 297 53 317 78 q 336 101 350 141 q 365 181 365 220 q 365 307 270 307 q 253 307 223 299 q 219 307 220 319 q 221 331 225 339 q 277 351 318 378 q 408 439 408 521 q 408 570 359 570 z"},";":{"x_min":0,"x_max":256,"ha":256,"o":"m 127 362 q 127 391 149 412 q 171 433 201 433 q 231 433 252 413 q 273 393 273 364 q 273 335 251 315 q 229 294 199 294 q 169 294 148 314 q 127 333 127 362 z m 153 127 q 193 127 208 95 q 224 64 211 4 q 205 -21 183 -54 q 160 -86 134 -108 q 108 -129 75 -146 q 43 -162 16 -167 q 3 -157 16 -136 q 48 -127 88 -88 q 127 -49 132 -27 q 134 -21 132 -15 q 131 -10 127 -7 q 123 -3 119 -1 q 116 1 111 3 q 105 5 104 6 q 89 14 83 34 q 76 53 81 73 q 84 90 109 108 q 134 127 153 127 z"},"J":{"x_min":0,"x_max":359,"ha":359,"o":"m 373 522 l 291 103 q 283 61 270 27 q 256 -7 243 -29 q 230 -51 211 -73 q 191 -94 180 -104 l 148 -129 q 72 -187 -8 -187 q -23 -187 -43 -179 q -62 -172 -77 -155 q -92 -138 -88 -116 q -84 -96 -60 -78 q -37 -60 -22 -60 q -9 -60 0 -65 q 9 -70 12 -76 q 15 -81 19 -91 q 23 -102 25 -105 q 30 -115 41 -122 q 52 -128 65 -128 q 78 -128 87 -123 q 95 -118 103 -107 q 111 -96 119 -70 q 126 -44 134 -10 q 142 23 153 81 l 238 522 q 242 543 244 557 q 245 571 242 582 q 240 592 235 598 q 231 603 219 606 q 208 610 197 611 q 185 612 163 613 q 160 617 162 630 q 164 643 169 647 q 265 645 328 645 q 377 645 471 647 q 475 643 472 630 q 469 617 464 613 q 444 612 433 610 q 423 608 412 604 q 401 599 395 589 q 389 579 384 563 q 378 548 373 522 z"},"V":{"x_min":0,"x_max":671,"ha":671,"o":"m 676 543 q 700 584 724 597 q 748 610 785 613 q 791 617 793 630 q 795 643 792 647 q 720 645 701 645 q 645 645 574 647 q 569 643 566 630 q 563 617 567 613 q 578 612 585 611 q 593 610 603 608 q 612 606 618 603 q 623 599 627 594 q 631 590 631 583 q 630 575 625 566 l 423 210 l 399 171 l 393 216 l 344 573 q 343 583 346 590 q 350 597 355 601 q 361 604 373 607 q 385 610 395 611 q 405 612 422 613 q 427 617 430 630 q 433 643 429 647 q 357 645 260 645 q 201 645 131 647 q 125 643 124 630 q 122 617 125 613 q 140 611 147 610 q 154 609 165 606 q 176 602 182 597 q 188 592 193 582 q 199 573 201 559 l 304 11 q 306 0 314 -6 q 322 -12 331 -12 q 340 -12 351 -6 q 362 0 368 11 z"},"\"":{"x_min":0,"x_max":376,"ha":376,"o":"m 271 411 l 257 415 q 263 585 265 591 q 269 610 289 628 q 309 645 337 645 q 363 645 369 635 q 375 625 372 608 q 370 601 351 554 l 314 461 l 296 417 z m 138 411 l 125 415 q 130 585 132 591 q 136 610 156 628 q 176 645 205 645 q 223 645 232 639 q 241 634 240 625 q 240 617 239 608 q 237 601 219 554 l 182 461 l 164 417 z"},"7":{"x_min":0,"x_max":514,"ha":514,"o":"m 284 498 q 271 498 260 496 q 250 493 236 485 q 223 477 209 458 q 196 440 182 411 l 149 414 q 192 534 210 611 q 211 614 215 614 q 217 613 230 607 q 243 600 262 600 l 577 600 l 581 591 q 457 402 379 273 l 220 -2 l 122 -12 l 119 0 l 467 498 z"},"S":{"x_min":0,"x_max":482,"ha":482,"o":"m 526 631 q 519 542 507 479 q 498 473 483 472 q 467 471 458 474 q 457 498 454 515 q 452 532 445 553 q 439 573 429 586 q 419 599 401 608 q 383 617 360 617 q 323 617 296 593 q 270 569 261 527 q 254 489 281 453 q 309 418 343 398 q 421 352 453 304 q 472 276 479 248 q 487 220 480 184 q 465 106 387 44 q 319 -10 232 -10 q 174 -10 140 -5 q 105 0 86 5 q 67 10 46 10 q 40 81 59 175 q 95 184 108 178 q 109 112 144 72 q 179 32 229 32 q 273 32 306 56 q 338 79 345 115 q 353 153 335 184 q 318 213 283 243 q 274 251 241 273 q 208 295 182 318 q 156 341 142 369 q 120 411 133 485 q 139 520 163 553 q 187 586 220 610 q 253 634 293 646 q 333 658 369 658 q 408 658 435 653 q 462 648 485 641 q 508 634 526 631 z"},"}":{"x_min":0,"x_max":307,"ha":307,"o":"m 90 -56 l 118 110 q 129 172 159 202 q 190 231 246 247 l 247 251 q 200 274 182 308 q 165 342 180 401 l 219 550 q 234 613 219 648 q 205 684 172 684 q 169 688 171 696 q 172 704 177 708 q 202 708 222 705 q 243 702 262 695 q 281 688 293 675 q 305 663 314 645 q 322 627 322 602 q 321 577 314 545 l 272 375 q 260 327 276 299 q 292 271 341 265 q 345 259 343 249 q 341 239 334 233 q 285 228 257 198 q 229 168 219 126 l 186 -58 q 178 -99 157 -129 q 136 -160 107 -177 q 78 -194 47 -203 q 15 -211 -18 -211 q -21 -207 -20 -199 q -18 -191 -13 -187 q 2 -183 11 -179 q 21 -175 35 -166 q 49 -156 58 -144 q 67 -131 77 -108 q 85 -86 90 -56 z"},"Z":{"x_min":0,"x_max":598,"ha":598,"o":"m 420 44 q 466 44 507 80 q 547 115 574 177 q 600 177 611 172 q 572 43 551 -5 q 551 -8 546 -8 q 450 0 324 0 l 37 0 q 19 0 22 15 q 23 25 34 38 l 498 579 q 502 584 505 587 q 507 590 509 594 q 511 598 509 600 q 507 602 501 602 l 317 602 q 225 602 170 476 q 144 476 133 481 q 161 549 191 650 q 191 653 196 653 q 292 645 418 645 l 611 645 q 626 645 648 646 q 669 647 674 647 q 683 647 687 645 q 690 642 689 637 q 688 628 683 620 q 678 613 659 591 l 218 72 q 209 62 207 56 q 204 50 209 47 q 213 44 228 44 z"},"x":{"x_min":0,"x_max":517,"ha":517,"o":"m 196 333 q 189 351 167 351 q 146 351 112 334 q 106 339 101 352 q 96 364 95 373 q 131 394 183 416 q 235 439 259 439 q 276 439 286 426 q 294 414 310 372 l 335 299 l 359 333 q 374 354 383 366 q 393 379 407 395 q 421 410 434 418 q 446 426 463 432 q 480 438 499 438 q 526 438 547 425 q 568 412 568 390 q 568 367 554 349 q 541 331 521 331 q 500 331 477 345 q 462 354 451 354 q 438 354 425 336 l 350 233 l 412 90 q 422 66 434 66 q 448 66 459 71 q 471 76 487 92 l 512 67 q 471 21 436 6 q 401 -10 364 -10 q 335 -10 320 11 q 305 32 290 76 l 271 134 q 241 89 216 61 q 176 15 155 2 q 134 -10 97 -10 q 70 -10 48 4 q 26 19 26 43 q 26 92 75 92 q 91 92 106 86 q 122 79 133 72 q 144 65 149 65 q 160 65 180 91 l 194 110 l 211 133 l 226 152 l 241 175 q 248 186 253 196 q 246 219 231 254 l 207 311 z"},")":{"x_min":0,"x_max":315,"ha":315,"o":"m 325 251 q 297 120 210 -3 q 123 -126 6 -216 l -13 -182 q 162 -10 217 251 q 233 327 236 395 q 238 463 232 507 q 227 551 213 593 q 199 634 191 651 q 182 668 171 685 l 206 717 q 241 677 267 632 q 293 586 307 547 q 321 507 328 465 q 335 423 337 392 q 338 361 336 329 q 333 296 331 281 q 328 266 325 251 z"},"&":{"x_min":0,"x_max":729,"ha":729,"o":"m 373 536 q 368 522 372 484 q 376 446 388 420 l 392 414 q 481 479 492 527 q 499 562 486 587 q 473 613 445 613 q 430 613 414 605 q 398 597 389 581 q 379 564 373 536 z m 603 355 q 629 398 575 402 q 568 403 569 409 l 574 433 l 579 436 q 638 434 675 434 l 753 436 l 755 434 l 750 411 q 749 403 738 402 q 717 400 699 387 q 682 373 654 341 l 501 156 q 504 149 509 136 l 516 115 l 523 96 q 528 84 532 78 q 536 71 541 64 q 546 57 552 54 q 558 51 563 51 q 575 51 583 52 q 591 54 605 63 q 620 72 634 90 q 641 90 648 81 q 655 72 658 61 q 593 -10 527 -10 q 509 -10 495 -7 q 481 -5 466 2 q 450 9 436 24 q 423 40 413 63 q 329 -10 228 -10 q 139 -10 100 26 q 57 65 75 150 q 87 207 135 255 q 182 303 282 350 q 258 396 252 426 q 245 456 252 491 q 257 515 275 545 q 293 575 320 600 q 347 625 388 639 q 430 654 472 654 q 502 654 527 643 q 551 631 563 614 q 576 597 581 576 q 585 556 582 537 q 571 487 526 450 q 480 413 404 377 l 407 372 q 429 306 472 214 q 474 208 478 208 q 482 207 486 210 q 522 250 556 291 q 590 333 603 355 z m 296 317 q 250 282 229 246 q 208 211 200 170 q 189 119 207 75 q 225 31 254 31 q 289 31 320 48 q 352 65 389 105 q 342 200 296 317 z"},"_":{"x_min":0,"x_max":486,"ha":486,"o":"m 463 -110 l 455 -154 l -22 -154 l -15 -110 z"},"v":{"x_min":0,"x_max":507,"ha":507,"o":"m 332 107 l 335 105 q 381 141 417 204 q 453 266 459 314 q 464 345 439 382 q 434 390 434 403 q 434 439 494 439 q 521 439 538 426 q 554 413 554 392 q 554 349 527 285 q 496 213 430 128 q 412 105 385 77 q 359 48 322 18 q 285 -12 264 -12 q 246 -12 237 7 q 229 25 224 58 l 193 296 q 186 347 175 347 q 167 347 148 333 q 129 319 112 298 q 88 302 80 326 q 118 371 169 405 q 220 439 251 439 q 304 439 315 309 z"},"O":{"x_min":0,"x_max":699,"ha":699,"o":"m 456 616 q 415 616 376 590 q 337 563 306 509 q 278 460 255 380 q 233 300 233 226 q 233 134 271 83 q 309 32 374 32 q 433 32 483 86 q 534 141 563 230 q 592 320 592 422 q 592 516 555 566 q 519 616 456 616 z m 347 -10 q 275 -10 217 20 q 159 49 124 106 q 88 164 88 241 q 88 332 124 409 q 160 487 219 546 q 272 599 339 628 q 405 658 476 658 q 592 658 664 589 q 737 520 737 404 q 737 291 686 196 q 636 102 546 46 q 457 -10 347 -10 z"},"(":{"x_min":0,"x_max":315,"ha":315,"o":"m 97 253 q 125 384 212 507 q 299 631 416 720 l 435 686 q 261 515 205 253 q 189 178 187 109 q 184 41 190 -3 q 196 -47 209 -89 q 223 -130 232 -147 q 240 -164 251 -181 l 216 -213 q 181 -173 155 -128 q 129 -83 115 -43 q 101 -3 94 39 q 86 81 85 112 q 84 143 86 175 q 88 208 91 223 q 94 238 97 253 z"},"C":{"x_min":0,"x_max":675,"ha":675,"o":"m 378 -10 q 233 -10 161 53 q 114 95 98 167 q 82 240 96 315 q 112 396 152 461 q 192 527 248 570 q 304 612 371 635 q 438 658 509 658 q 549 658 583 652 q 618 646 636 637 q 655 629 676 622 q 696 614 711 613 q 708 514 702 458 q 693 454 680 452 q 668 450 659 453 q 657 481 652 503 q 646 525 635 547 q 623 569 605 584 q 587 598 558 607 q 529 616 491 616 q 436 616 384 578 q 333 540 296 475 q 260 411 245 334 q 233 275 239 223 q 246 170 264 130 q 282 89 315 66 q 348 42 388 42 q 511 42 621 146 q 629 146 638 139 q 646 132 649 125 q 587 59 518 25 q 448 -10 378 -10 z"},"W":{"x_min":0,"x_max":986,"ha":986,"o":"m 671 613 l 728 216 l 734 174 l 753 210 l 936 566 q 940 575 941 583 q 941 590 937 594 q 933 599 928 603 q 922 606 913 608 q 904 610 896 611 q 889 612 878 613 q 875 617 877 630 q 879 643 885 647 q 955 645 1012 645 q 1031 645 1103 647 q 1106 643 1104 630 q 1102 617 1096 613 q 1071 611 1055 607 q 1039 602 1021 587 q 1002 572 987 543 l 698 11 q 692 -1 681 -7 q 670 -12 661 -12 q 653 -12 644 -5 q 635 3 634 11 l 564 410 l 352 11 q 339 -12 315 -12 q 306 -12 298 -6 q 290 0 288 11 l 205 559 q 203 572 198 582 q 192 591 186 597 q 180 602 169 605 q 158 609 151 610 q 143 611 129 613 q 125 617 127 630 q 129 643 135 647 q 205 645 264 645 q 361 645 433 647 q 437 643 434 630 q 431 617 426 613 q 384 610 365 603 q 345 595 347 573 l 392 216 l 395 184 l 407 210 l 613 613 q 642 607 671 613 z"},"A":{"x_min":0,"x_max":710,"ha":710,"o":"m 317 283 l 463 283 l 430 520 l 424 520 l 295 296 q 291 289 296 286 q 301 283 317 283 z m 174 79 q 168 69 167 62 q 166 54 171 49 q 175 44 180 42 q 185 39 196 37 q 207 35 212 34 q 218 33 231 32 q 234 28 232 15 q 229 2 224 -2 q 154 0 97 0 q 78 0 6 -2 q 2 2 5 15 q 8 28 13 32 q 32 34 43 36 q 55 38 69 45 q 83 52 96 66 q 108 80 122 102 l 430 614 q 462 614 544 658 l 631 86 q 632 79 634 72 q 636 66 638 61 q 640 57 644 53 q 647 49 650 46 q 652 43 658 41 q 664 39 666 38 q 668 37 676 36 q 683 35 686 34 l 696 33 q 705 32 707 32 q 710 28 708 15 q 706 2 700 -2 q 630 0 572 0 q 480 0 408 -2 q 405 2 407 15 q 409 28 414 32 q 420 33 433 33 q 446 34 451 34 q 456 35 466 36 q 475 38 479 40 q 482 42 487 46 q 492 50 493 57 q 494 63 493 72 l 471 235 l 289 235 q 272 235 265 231 q 257 228 252 218 z"},"f":{"x_min":0,"x_max":397,"ha":397,"o":"m 191 382 l 109 382 q 103 382 103 384 q 103 385 105 396 q 106 407 107 409 q 111 424 135 426 l 201 429 q 228 557 293 634 q 318 664 363 681 q 407 698 438 698 q 500 698 545 671 q 589 645 589 608 q 589 588 577 572 q 565 555 540 555 q 495 555 484 618 q 480 635 470 642 q 459 648 438 648 q 391 648 365 585 q 347 538 337 486 l 326 429 l 436 429 q 443 429 443 424 l 438 394 q 437 389 428 385 q 420 382 412 382 l 319 382 l 316 365 q 307 313 291 236 q 275 162 269 130 q 259 79 246 35 q 233 -9 223 -34 q 214 -59 196 -89 q 179 -119 174 -126 l 151 -158 q 124 -195 87 -214 q 50 -233 12 -233 q -44 -233 -73 -213 q -102 -192 -102 -168 q -102 -150 -90 -136 q -78 -122 -55 -122 q -39 -122 -24 -133 q -8 -145 1 -158 q 2 -159 5 -163 l 8 -168 q 8 -169 10 -172 q 13 -175 14 -176 q 15 -177 18 -179 q 20 -181 22 -182 l 27 -183 q 31 -184 34 -184 q 48 -184 64 -173 q 80 -163 89 -147 q 105 -124 116 -84 q 126 -45 131 -17 q 135 12 141 67 q 147 122 150 141 q 154 175 159 206 q 165 236 175 292 z"},"Q":{"x_min":0,"x_max":699,"ha":699,"o":"m 456 616 q 415 616 376 590 q 337 563 306 509 q 278 460 255 380 q 233 300 233 226 q 233 134 271 83 q 309 32 374 32 q 433 32 483 86 q 534 141 563 230 q 592 320 592 422 q 592 516 555 566 q 519 616 456 616 z m 126 -129 q 202 -53 298 -6 q 205 8 147 74 q 88 140 88 241 q 88 332 124 409 q 160 487 219 546 q 272 599 339 628 q 405 658 476 658 q 592 658 664 589 q 737 520 737 404 q 737 297 691 206 q 646 115 565 58 q 483 1 383 -8 q 333 -25 278 -60 l 284 -60 q 313 -60 341 -70 q 369 -79 391 -93 l 434 -119 q 454 -133 478 -142 q 501 -152 524 -152 q 547 -152 572 -143 q 597 -134 615 -115 l 627 -137 q 588 -182 551 -206 q 514 -229 471 -229 q 437 -229 406 -218 q 375 -208 353 -192 l 310 -161 q 289 -146 265 -135 q 241 -124 217 -124 q 200 -124 178 -139 q 152 -162 135 -183 l 104 -153 q 113 -141 126 -129 z"},"w":{"x_min":0,"x_max":729,"ha":729,"o":"m 441 218 l 438 219 q 417 180 393 142 q 369 103 342 67 q 316 32 291 10 q 267 -13 250 -12 q 217 -12 210 58 l 189 296 q 185 347 171 347 q 163 347 144 333 q 125 319 108 298 q 84 302 76 326 q 114 371 165 405 q 216 439 247 439 q 263 439 275 427 q 288 416 295 396 q 302 376 306 355 q 310 333 311 309 l 320 139 l 324 137 q 348 160 384 218 q 419 275 450 346 q 486 362 517 362 q 530 329 549 250 q 567 172 579 107 l 583 105 q 621 137 648 199 q 675 261 682 314 q 686 345 661 382 q 655 391 655 403 q 655 439 716 439 q 743 439 760 426 q 776 413 776 392 q 776 349 750 285 q 709 191 665 128 q 652 111 637 92 q 621 72 597 47 q 574 21 551 4 q 527 -12 511 -12 q 502 -12 495 -7 q 488 -2 484 10 q 479 21 477 31 q 475 41 471 58 z"},"-":{"x_min":0,"x_max":358,"ha":358,"o":"m 327 215 l 129 215 q 112 215 102 221 q 92 227 92 236 q 92 250 108 272 q 124 294 138 294 l 338 294 q 374 294 374 273 q 374 261 358 238 q 343 215 327 215 z"},"E":{"x_min":0,"x_max":578,"ha":578,"o":"m 377 367 q 427 367 447 378 q 466 389 476 429 q 481 434 498 434 q 514 434 517 429 q 511 403 499 343 q 490 299 483 255 q 478 250 461 250 q 445 250 442 255 q 446 290 431 303 q 416 317 367 317 l 289 317 l 245 90 q 242 70 250 56 q 259 42 275 42 l 372 42 q 424 42 465 77 q 505 112 532 170 q 542 172 555 171 q 568 169 574 165 l 551 94 q 530 28 516 -2 q 430 0 384 0 l 158 0 q 56 -1 9 -2 q 5 2 8 15 q 11 28 16 32 q 36 33 46 34 q 57 35 69 38 q 81 42 86 47 q 92 52 99 62 q 105 73 109 87 q 113 99 117 122 l 194 522 q 198 543 200 557 q 201 571 199 582 q 196 592 193 598 q 189 603 179 606 q 168 610 158 611 q 148 612 129 613 q 125 617 127 630 q 129 643 135 647 l 283 645 l 566 645 q 591 645 614 649 q 617 649 617 646 q 617 643 614 616 q 610 588 606 553 q 602 519 600 501 q 583 492 558 496 q 552 554 534 578 q 516 603 466 603 l 384 603 q 367 603 353 588 q 339 573 335 554 l 299 367 z"},"s":{"x_min":0,"x_max":417,"ha":417,"o":"m 426 355 q 428 333 416 319 q 403 304 389 300 q 372 295 357 301 q 342 307 336 322 q 335 325 331 336 q 326 348 324 352 q 323 356 318 365 q 313 375 310 378 q 306 382 300 388 q 294 393 286 395 q 279 397 270 397 q 249 397 232 384 q 216 371 216 353 q 216 338 222 325 q 228 312 235 303 q 241 295 255 285 q 268 276 274 272 q 279 269 292 262 q 405 202 405 130 q 405 105 394 81 q 384 57 364 36 q 343 16 308 3 q 272 -10 227 -10 q 185 -10 149 0 q 114 9 89 32 q 65 55 65 87 q 65 109 79 124 q 94 138 108 138 q 146 138 172 80 q 183 56 203 44 q 223 32 248 32 q 267 32 283 47 q 300 62 300 81 q 300 115 284 139 q 269 163 236 181 q 185 211 153 245 q 122 280 122 311 q 122 341 134 365 q 146 388 164 402 q 182 416 206 424 q 230 433 252 436 q 274 439 297 439 q 345 439 384 415 q 422 391 426 355 z"},">":{"x_min":0,"x_max":512,"ha":512,"o":"m 406 238 l 132 354 l 146 416 l 516 259 l 506 215 l 70 60 l 83 122 z"},"l":{"x_min":0,"x_max":324,"ha":324,"o":"m 208 563 q 213 584 213 597 q 214 610 211 619 q 208 627 199 632 q 189 636 178 637 q 167 638 146 638 q 142 652 151 672 q 164 674 203 681 q 242 688 273 693 q 303 698 317 698 q 333 698 340 690 q 347 682 347 665 q 347 656 345 645 q 343 633 339 612 l 332 583 l 231 127 q 225 97 225 84 q 225 66 235 66 q 244 66 266 79 q 288 92 305 113 q 314 113 323 103 q 331 94 334 85 q 295 42 247 16 q 198 -10 148 -10 q 97 -10 97 47 q 97 73 107 118 z"},"8":{"x_min":0,"x_max":514,"ha":514,"o":"m 381 573 q 337 573 317 547 q 292 512 292 462 q 292 421 330 397 l 372 371 q 401 388 419 431 q 437 475 437 521 q 437 546 425 560 q 412 573 381 573 z m 493 396 q 457 361 407 347 l 453 314 q 505 276 505 204 q 505 151 482 112 q 460 73 414 41 q 342 -10 248 -10 q 167 -10 120 21 q 74 53 74 112 q 74 188 136 245 q 175 281 253 319 l 236 330 q 201 353 185 375 q 169 397 169 426 q 169 502 229 555 q 292 610 396 610 q 471 610 507 582 q 543 554 543 507 q 543 445 493 396 z m 258 32 q 314 32 346 68 q 361 86 373 119 q 385 151 385 185 q 385 232 332 267 l 287 296 q 256 276 235 252 q 214 228 205 202 q 195 175 191 153 q 188 130 188 102 q 188 32 258 32 z"},"\\":{"x_min":0,"x_max":307,"ha":307,"o":"m 188 698 l 313 -48 l 249 -48 l 124 698 z"},"e":{"x_min":0,"x_max":409,"ha":409,"o":"m 343 370 q 343 398 311 398 q 294 398 281 392 q 269 387 254 371 q 240 355 226 322 q 212 288 200 237 q 218 240 236 246 q 253 251 273 262 q 293 273 308 287 q 323 301 333 323 q 343 344 343 370 z m 193 199 q 192 191 192 165 q 192 50 245 50 q 281 50 310 65 q 338 81 381 124 q 390 124 399 116 q 409 108 413 99 q 371 44 316 17 q 262 -10 209 -10 q 174 -10 148 -2 q 122 6 106 19 q 90 32 80 52 q 70 72 67 94 q 63 115 63 142 q 63 182 72 222 q 82 262 103 301 q 124 341 155 371 q 185 401 232 420 q 278 439 334 439 q 392 439 424 418 q 456 397 456 369 q 456 318 425 288 q 374 238 193 199 z"},"b":{"x_min":0,"x_max":521,"ha":521,"o":"m 267 278 l 233 127 q 222 76 228 54 q 234 32 261 32 q 299 32 336 69 q 374 105 398 168 q 422 231 422 301 q 422 352 389 352 q 354 352 329 336 q 303 319 267 278 z m 279 335 l 281 335 q 370 439 449 439 q 475 439 494 431 q 513 423 523 412 q 534 400 540 384 q 546 368 548 355 q 550 342 550 328 q 550 252 520 191 q 489 130 426 74 q 333 -10 210 -10 q 147 -10 122 28 q 97 66 109 118 l 210 563 q 214 581 215 593 q 217 604 215 613 q 212 622 208 627 q 204 631 195 634 q 186 637 175 637 q 165 638 148 638 q 144 652 153 672 q 166 674 205 681 q 244 688 275 693 q 305 698 319 698 q 335 698 342 690 q 349 682 349 665 q 349 651 334 583 z"},"%":{"x_min":0,"x_max":637,"ha":637,"o":"m 227 364 q 227 354 232 345 q 237 336 244 336 q 269 336 299 376 q 346 438 346 498 q 346 530 318 530 q 293 530 262 478 q 244 447 236 423 q 227 398 227 364 z m 204 517 q 226 539 256 552 q 285 566 315 566 q 354 566 372 546 q 388 535 417 527 q 445 519 467 519 q 564 519 618 569 l 658 548 l 152 -16 l 104 -4 l 554 497 q 497 474 448 474 q 415 474 386 493 q 381 420 327 355 q 279 297 220 297 q 183 297 163 316 q 144 335 144 373 q 144 456 204 517 z m 462 48 q 462 38 467 29 q 472 20 479 20 q 504 20 534 60 q 581 123 581 182 q 581 214 553 214 q 528 214 497 162 q 479 131 470 107 q 462 83 462 48 z m 438 201 q 461 223 491 237 q 521 250 551 250 q 581 250 601 236 q 621 222 621 189 q 621 148 604 108 q 587 70 562 40 q 513 -19 455 -19 q 418 -19 398 0 q 379 19 379 57 q 379 140 438 201 z"},"m":{"x_min":0,"x_max":884,"ha":884,"o":"m 146 243 q 161 312 161 352 q 161 380 143 382 l 103 385 q 99 391 99 404 q 100 417 105 423 q 210 436 271 436 q 281 436 288 429 q 294 422 294 412 q 294 370 282 311 l 283 310 q 348 386 390 413 q 431 439 473 439 q 508 439 535 419 q 562 400 562 359 q 562 351 561 341 q 649 439 745 439 q 780 439 807 419 q 834 400 834 359 q 834 339 821 283 l 783 124 q 768 63 787 63 q 796 63 818 76 q 839 90 857 110 q 866 110 875 100 q 883 91 886 82 q 852 38 803 14 q 754 -10 701 -10 q 680 -10 669 -2 q 658 6 652 23 q 643 48 659 115 l 696 275 q 705 315 705 333 q 705 369 680 369 q 651 369 619 341 q 587 313 543 258 l 501 72 q 500 67 497 53 q 494 39 493 33 q 491 28 486 17 q 481 7 475 2 q 469 -2 458 -6 q 447 -10 432 -10 q 393 -10 379 -3 q 366 3 366 17 q 366 21 368 30 l 374 52 q 377 64 379 72 l 424 275 q 433 317 433 343 q 433 369 413 369 q 389 369 357 336 q 326 304 268 228 l 230 72 q 229 67 226 53 q 223 39 221 33 q 220 27 215 17 q 210 7 204 2 q 198 -2 187 -6 q 176 -10 161 -10 q 122 -10 108 -3 q 95 3 95 17 q 95 21 98 30 l 103 52 q 106 64 108 72 z"},"#":{"x_min":0,"x_max":514,"ha":514,"o":"m 328 253 l 367 360 l 279 360 l 238 253 z m 417 360 l 378 253 l 489 253 l 467 187 l 355 187 l 292 14 l 243 14 l 307 187 l 216 187 l 151 14 l 100 14 l 163 187 l 70 187 l 92 253 l 187 253 l 225 360 l 131 360 l 153 426 l 248 426 l 312 599 l 364 599 l 299 426 l 391 426 l 454 599 l 502 599 l 440 426 l 550 426 l 528 360 z"},",":{"x_min":0,"x_max":244,"ha":244,"o":"m 144 127 q 183 127 198 96 q 214 64 201 4 q 195 -21 172 -54 q 150 -86 124 -108 q 99 -129 66 -146 q 33 -162 5 -167 q -7 -157 5 -136 q 38 -127 78 -88 q 117 -49 122 -27 q 124 -21 122 -15 q 121 -10 116 -7 q 112 -3 109 -1 q 106 1 101 3 q 95 5 95 6 q 79 14 73 34 q 66 53 71 73 q 74 90 99 108 q 125 127 144 127 z"},"n":{"x_min":0,"x_max":614,"ha":614,"o":"m 140 243 q 155 309 155 352 q 155 381 137 382 l 97 385 q 93 391 94 404 q 94 417 99 423 q 205 436 265 436 q 275 436 282 429 q 289 422 289 412 q 289 373 276 311 l 278 309 q 343 386 389 412 q 435 439 487 439 q 521 439 549 419 q 576 400 576 359 q 576 338 563 283 l 525 124 q 510 63 529 63 q 538 63 560 76 q 582 90 599 110 q 608 110 617 100 q 625 91 628 82 q 594 38 545 14 q 496 -10 443 -10 q 422 -10 411 -2 q 400 6 394 23 q 385 49 401 115 l 438 275 q 447 313 447 333 q 447 354 438 362 q 430 369 412 369 q 387 369 352 334 q 316 298 262 228 l 224 72 q 223 67 220 53 q 217 39 216 33 q 214 27 209 17 q 204 7 198 2 q 191 -2 180 -6 q 169 -10 155 -10 q 115 -10 102 -3 q 89 3 89 17 q 89 21 91 30 l 97 52 q 100 64 102 72 z"},"h":{"x_min":0,"x_max":620,"ha":620,"o":"m 226 72 l 223 58 q 221 48 220 42 q 219 37 217 29 q 214 21 211 16 q 208 12 204 6 q 199 0 193 -3 q 187 -6 177 -8 q 168 -10 157 -10 q 118 -10 104 -3 q 91 3 91 17 q 91 21 93 29 l 99 50 q 102 62 104 72 l 214 563 q 218 581 219 593 q 221 604 219 613 q 216 622 212 627 q 208 631 199 634 q 189 637 179 637 q 169 638 152 638 q 147 651 157 672 q 170 674 209 681 q 249 688 279 693 q 310 698 323 698 q 340 698 346 690 q 353 682 353 665 q 353 656 351 645 q 349 633 345 612 l 338 583 l 280 318 q 340 387 389 413 q 438 439 483 439 q 518 439 545 419 q 572 400 572 359 q 572 336 559 283 l 521 124 q 506 63 525 63 q 534 63 556 76 q 578 90 595 110 q 604 110 613 100 q 621 91 624 82 q 590 38 541 14 q 492 -10 439 -10 q 418 -10 407 -2 q 396 6 390 23 q 381 49 397 115 l 434 275 q 443 313 443 333 q 443 354 434 362 q 426 369 408 369 q 384 369 348 334 q 312 299 261 232 z"},"z":{"x_min":0,"x_max":457,"ha":457,"o":"m 458 450 q 479 444 495 422 l 202 117 q 206 118 211 118 q 215 119 219 120 q 223 120 228 120 q 232 120 235 120 q 238 120 243 119 q 248 118 250 117 q 252 117 257 116 q 262 114 263 114 q 265 114 270 112 q 275 110 276 110 q 284 108 301 102 q 318 95 332 92 q 345 88 359 88 q 368 88 375 90 q 381 91 392 96 q 404 101 417 115 q 431 129 445 151 q 457 151 465 144 q 473 137 476 127 q 458 89 435 61 q 412 33 389 18 q 365 3 343 -3 q 321 -10 299 -10 q 246 -10 200 11 q 160 30 127 30 q 110 24 81 -12 q 45 -7 39 7 q 41 13 68 43 l 117 96 l 342 329 q 334 329 323 328 q 312 327 304 327 q 291 327 268 334 q 246 341 219 341 q 196 341 165 323 q 134 305 125 285 q 102 285 93 296 q 109 342 154 390 q 200 439 233 439 q 303 439 389 415 q 397 413 410 413 q 416 415 419 417 q 422 418 433 427 q 443 435 458 450 z"},"B":{"x_min":0,"x_max":621,"ha":621,"o":"m 341 562 l 305 376 l 359 376 q 470 376 492 489 q 515 605 417 605 q 387 605 371 600 q 355 595 350 586 q 344 578 341 562 z m 297 334 l 248 84 q 245 69 247 60 q 249 50 262 45 q 275 40 303 40 q 340 40 369 50 q 398 60 417 74 q 435 89 448 110 q 462 130 468 148 q 475 167 479 187 q 492 254 465 294 q 437 334 365 334 z m 291 645 q 304 645 353 646 q 402 647 428 647 q 469 647 501 642 q 533 637 555 628 q 577 620 592 607 q 607 595 615 582 q 624 568 627 552 q 631 536 630 522 q 630 507 627 491 q 620 453 586 416 q 553 379 510 361 l 509 359 q 580 338 607 296 q 633 253 620 186 q 612 146 593 113 q 573 81 538 54 q 504 27 449 13 q 395 -2 323 -2 q 292 -2 237 -1 q 183 0 166 0 l 18 -2 q 12 2 14 15 q 16 28 24 32 q 43 33 53 35 q 63 36 76 41 q 89 46 96 56 q 103 65 109 81 q 116 98 121 122 l 199 523 q 203 543 204 558 q 205 573 202 583 q 198 592 194 598 q 190 604 180 607 q 169 610 161 611 q 153 612 137 613 q 131 617 134 630 q 136 643 144 647 q 253 645 291 645 z"},"K":{"x_min":0,"x_max":706,"ha":706,"o":"m 211 523 q 215 543 216 558 q 216 573 213 583 q 209 592 205 598 q 201 604 190 607 q 180 610 172 611 q 164 612 148 613 q 142 617 144 630 q 146 643 155 647 q 231 645 303 645 q 371 645 449 647 q 455 643 453 630 q 450 617 442 613 q 423 612 413 610 q 402 609 390 604 q 377 599 370 589 q 363 580 357 564 q 350 547 345 523 l 312 352 q 334 355 360 371 q 385 387 439 430 q 524 493 560 525 q 649 604 572 613 q 568 617 571 630 q 574 643 579 647 q 669 645 697 645 q 698 645 788 647 q 792 643 790 630 q 788 617 782 613 q 764 611 746 605 q 729 599 716 594 q 704 588 685 575 q 666 562 657 556 l 625 530 l 593 504 l 470 407 q 465 403 461 400 q 458 396 457 392 q 455 389 454 387 q 454 386 453 382 l 453 378 q 451 367 473 333 l 633 74 q 646 53 662 44 q 677 36 699 32 q 703 28 700 15 q 698 2 693 -2 q 603 0 587 0 q 519 0 481 -2 q 477 -2 477 4 q 479 32 456 74 l 349 271 q 338 291 329 299 q 320 307 303 309 l 267 122 q 263 102 262 87 q 261 72 265 62 q 268 53 272 47 q 276 42 287 38 q 297 35 305 34 q 313 33 329 32 q 335 28 333 15 q 332 2 323 -2 q 247 0 177 0 q 107 0 29 -2 q 23 2 25 15 q 28 28 36 32 q 55 33 65 35 q 76 36 88 41 q 101 46 108 56 q 115 65 121 81 q 128 98 133 122 z"},"R":{"x_min":0,"x_max":686,"ha":686,"o":"m 517 467 q 522 498 522 520 q 522 542 515 559 q 508 575 499 586 q 489 596 475 602 q 461 608 448 610 q 435 613 420 613 q 383 613 369 595 q 355 577 345 524 l 307 325 l 348 325 q 375 325 395 328 q 415 331 435 340 q 456 349 471 364 q 486 379 498 405 q 510 431 517 467 z m 459 654 q 567 654 613 621 q 648 596 658 558 q 667 521 660 484 q 653 447 637 417 q 622 386 600 365 q 579 345 558 331 q 537 317 514 308 l 604 98 q 620 63 637 48 q 654 32 684 32 q 686 26 684 15 q 682 3 678 -2 q 660 -10 578 -10 q 539 -10 513 14 q 488 39 469 79 l 390 253 q 385 266 379 271 q 373 277 354 280 q 335 283 298 283 l 267 122 q 263 102 262 87 q 261 72 265 62 q 268 53 272 47 q 276 42 287 38 q 297 35 305 34 q 313 33 329 32 q 335 28 333 15 q 332 2 323 -2 q 247 0 177 0 q 107 0 29 -2 q 23 2 25 15 q 28 28 36 32 q 55 33 65 35 q 76 36 88 41 q 101 46 108 56 q 115 65 121 81 q 128 98 133 122 l 211 523 q 215 543 216 558 q 216 573 213 583 q 209 592 205 598 q 201 604 190 607 q 180 610 172 611 q 164 612 148 613 q 142 617 144 630 q 146 643 155 647 q 174 647 307 650 q 440 654 459 654 z"},"T":{"x_min":0,"x_max":625,"ha":625,"o":"m 413 123 q 409 102 407 88 q 406 74 408 63 q 411 53 416 47 q 420 42 431 39 q 443 35 454 34 q 466 33 488 32 q 491 28 489 15 q 486 2 481 -2 q 385 0 320 0 q 255 0 161 -2 q 158 2 160 15 q 162 28 167 32 q 189 33 201 34 q 213 35 226 39 q 239 42 246 47 q 252 53 259 63 q 266 74 270 88 q 273 102 278 123 l 353 506 q 363 552 358 578 q 353 605 327 605 l 280 605 q 230 605 197 581 q 163 557 137 499 q 112 499 101 504 q 131 575 153 650 q 153 651 155 652 q 157 653 158 653 q 254 645 380 645 l 515 645 q 644 645 732 653 q 734 653 734 650 q 723 585 719 507 q 708 502 680 502 q 680 558 654 582 q 627 605 572 605 l 550 605 q 525 605 511 580 q 497 556 487 503 z"},"P":{"x_min":0,"x_max":588,"ha":588,"o":"m 459 654 q 567 654 613 621 q 648 596 658 558 q 667 521 660 484 q 652 439 628 397 q 604 354 565 325 q 500 277 373 277 q 359 277 340 280 q 323 292 329 322 q 349 319 376 319 q 435 319 466 354 q 497 387 512 467 q 541 613 420 613 q 383 613 369 595 q 355 577 345 524 l 267 122 q 263 102 262 87 q 261 72 265 62 q 268 53 272 47 q 276 42 287 38 q 297 35 305 34 q 313 33 329 32 q 335 28 333 15 q 332 2 323 -2 q 247 0 177 0 q 107 0 29 -2 q 23 2 25 15 q 28 28 36 32 q 55 33 65 35 q 76 36 88 41 q 101 46 108 56 q 115 65 121 81 q 128 98 133 122 l 211 523 q 215 543 216 558 q 216 573 213 583 q 209 592 205 598 q 201 604 190 607 q 180 610 172 611 q 164 612 148 613 q 142 617 144 630 q 146 643 155 647 q 174 647 307 650 q 440 654 459 654 z"},"|":{"x_min":0,"x_max":220,"ha":220,"o":"m 126 -233 l 69 -233 l 200 698 l 257 698 z"},"t":{"x_min":0,"x_max":367,"ha":367,"o":"m 118 118 l 179 382 l 109 382 q 103 382 103 384 q 103 385 105 396 q 107 407 108 409 q 112 424 136 426 l 189 429 l 202 479 q 204 486 207 501 q 210 515 212 522 q 214 529 218 539 q 223 548 229 553 q 236 559 246 561 q 260 564 274 567 q 289 570 305 572 q 321 574 331 572 q 342 570 342 564 q 342 559 338 541 q 334 523 328 501 q 323 479 322 474 l 312 429 l 411 429 q 419 423 414 405 q 409 386 400 382 l 302 382 l 242 127 q 235 100 235 84 q 235 66 246 66 q 255 66 277 79 q 298 92 316 113 q 325 113 334 103 q 342 94 345 85 q 306 42 258 16 q 209 -10 159 -10 q 108 -10 108 47 q 108 76 118 118 z"},"M":{"x_min":0,"x_max":862,"ha":862,"o":"m 659 116 l 715 534 l 713 534 l 394 5 q 387 -8 374 -8 q 369 -8 363 -4 q 357 0 357 5 l 264 498 l 260 498 l 162 123 q 155 100 154 85 q 152 71 156 59 q 160 46 172 40 q 185 34 208 32 q 211 28 209 15 q 207 2 201 -2 q 144 0 92 0 q 66 0 9 -2 q 5 2 8 15 q 11 28 16 32 q 57 36 74 55 q 91 74 105 121 l 223 533 q 228 549 230 558 q 232 568 233 577 q 234 586 234 591 q 234 595 230 600 q 227 604 224 606 q 221 607 211 609 q 202 611 196 611 q 189 612 174 613 q 170 617 173 630 q 175 643 180 647 l 377 645 l 462 201 l 467 201 l 736 645 l 929 647 q 933 643 930 630 q 928 617 923 613 q 875 610 861 597 q 847 584 843 542 l 790 121 q 787 95 787 94 q 786 84 786 73 q 786 62 786 57 q 787 52 790 47 q 793 41 797 40 q 800 38 809 36 q 817 34 824 33 q 832 33 846 32 q 850 28 847 15 q 845 2 840 -2 q 775 0 735 0 q 665 0 575 -2 q 572 2 574 15 q 576 28 581 32 q 601 33 608 34 q 616 34 626 38 q 637 41 640 45 q 643 48 647 59 q 652 70 654 82 q 656 92 659 116 z"},"g":{"x_min":0,"x_max":497,"ha":497,"o":"m 171 -13 q 134 -40 121 -55 q 94 -83 94 -113 q 94 -200 250 -200 q 274 -200 293 -195 q 312 -190 323 -183 q 333 -176 340 -166 q 347 -155 350 -146 q 352 -137 352 -127 q 352 -105 342 -94 q 333 -83 292 -64 q 189 -17 171 -13 z m 445 291 q 445 243 420 206 q 395 169 356 150 q 317 132 273 132 q 233 132 205 149 q 191 123 202 88 q 207 72 239 58 q 270 43 335 24 q 357 17 377 7 q 397 -4 416 -20 q 435 -35 446 -56 q 457 -77 457 -100 q 457 -148 423 -180 q 389 -211 335 -225 q 281 -238 209 -238 q 175 -238 141 -233 q 107 -229 73 -218 q 39 -207 18 -186 q -3 -165 -3 -136 q -3 -120 6 -104 q 15 -88 29 -75 q 42 -62 62 -49 q 81 -36 97 -26 l 132 -7 q 139 -4 142 -2 q 106 11 106 56 q 106 121 170 165 q 143 181 128 214 q 114 248 114 283 q 114 347 162 393 q 210 439 290 439 q 326 439 359 429 q 392 420 407 402 q 455 446 507 446 q 527 446 540 434 q 553 421 553 405 q 553 388 543 376 q 532 365 516 365 q 495 365 482 386 q 476 397 465 397 q 457 397 427 369 q 445 344 445 291 z m 331 291 q 331 315 331 329 q 330 342 328 358 q 325 374 321 381 q 316 389 307 394 q 299 399 286 399 q 276 399 269 397 q 261 396 255 394 q 249 392 245 387 q 240 382 237 379 q 234 375 232 367 q 230 359 229 354 q 229 350 228 339 q 228 328 228 322 q 228 316 228 303 q 228 290 228 282 q 228 276 228 261 q 227 247 227 239 q 228 231 229 219 q 229 207 233 200 q 236 193 241 186 q 247 178 256 175 q 265 172 278 172 q 287 172 294 174 q 301 176 306 178 q 312 181 316 186 q 320 191 323 196 q 325 200 327 208 q 329 217 330 222 q 331 228 331 238 q 331 249 331 255 q 332 260 331 273 q 331 285 331 291 z"},"j":{"x_min":0,"x_max":330,"ha":330,"o":"m 141 176 l 171 321 q 177 349 177 362 q 177 380 159 382 l 119 385 q 115 391 115 404 q 116 417 121 423 q 157 427 213 432 q 269 436 293 436 q 313 436 313 415 q 313 408 310 393 q 307 379 302 357 q 296 336 293 320 l 276 235 q 240 64 218 -4 q 176 -134 111 -179 q 69 -207 15 -207 q -34 -207 -65 -192 q -96 -177 -96 -144 q -96 -123 -83 -111 q -71 -99 -56 -99 q -41 -99 -29 -104 q -18 -110 -11 -118 q -5 -126 0 -135 q 5 -145 9 -153 q 13 -161 19 -166 q 25 -171 34 -171 q 52 -171 66 -146 q 80 -121 96 -56 q 106 -17 119 59 q 130 123 141 176 z m 204 596 q 204 621 222 639 q 241 658 274 658 q 303 658 321 637 q 339 617 339 592 q 339 570 319 550 q 299 530 268 530 q 239 530 222 550 q 204 570 204 596 z"},"i":{"x_min":0,"x_max":342,"ha":342,"o":"m 199 596 q 199 621 218 639 q 236 658 269 658 q 298 658 316 637 q 334 617 334 592 q 334 570 314 550 q 294 530 263 530 q 234 530 217 550 q 199 570 199 596 z m 293 320 l 251 124 q 237 63 255 63 q 264 63 286 76 q 308 90 325 110 q 334 110 343 100 q 351 91 354 82 q 320 38 271 14 q 222 -10 169 -10 q 148 -10 137 -2 q 126 6 120 23 q 112 45 127 115 l 171 321 q 177 349 177 362 q 177 380 159 382 l 119 385 q 115 391 115 404 q 116 417 121 423 q 157 427 213 432 q 269 436 293 436 q 313 436 313 415 q 313 407 311 393 q 308 379 302 356 q 296 335 293 320 z"},"y":{"x_min":0,"x_max":514,"ha":514,"o":"m 191 338 q 186 346 181 348 q 176 351 167 351 q 145 351 108 333 q 103 338 97 351 q 92 363 91 372 q 126 392 180 416 q 234 439 258 439 q 276 439 288 422 q 299 406 310 365 q 338 250 348 87 l 352 86 l 434 222 q 466 276 466 332 q 466 341 452 366 q 439 391 439 410 q 439 424 458 432 q 476 439 496 439 q 510 439 524 435 q 538 431 549 420 q 561 409 561 393 q 561 356 549 322 q 539 289 510 242 l 319 -70 q 273 -145 214 -191 q 155 -237 110 -237 q 101 -237 91 -234 q 80 -231 68 -225 q 57 -219 49 -207 q 41 -195 41 -179 q 41 -148 57 -128 q 73 -108 93 -108 q 100 -108 113 -115 q 126 -121 133 -128 q 139 -134 154 -143 q 168 -152 176 -152 q 189 -152 211 -130 q 233 -109 262 -62 q 269 -47 258 41 q 248 130 227 223 q 207 315 191 338 z"},"@":{"x_min":0,"x_max":988,"ha":988,"o":"m 652 320 q 659 346 657 364 q 654 381 638 381 q 595 381 554 343 q 481 275 458 164 q 454 145 452 130 q 451 115 454 101 q 456 87 465 79 q 475 72 491 72 q 537 72 598 193 q 646 289 652 320 z m 652 80 q 650 71 654 68 q 657 66 666 66 q 677 66 695 73 q 713 81 736 97 q 759 114 781 137 q 802 161 821 196 q 839 231 848 273 q 863 340 854 391 q 846 441 824 478 q 802 515 769 538 q 735 562 701 573 q 666 584 631 584 q 576 584 518 560 q 460 537 408 493 q 356 450 315 381 q 274 312 257 228 q 250 195 248 162 q 247 129 251 94 q 255 60 266 28 q 277 -3 297 -30 q 317 -58 344 -78 q 371 -98 410 -109 q 450 -121 498 -121 q 608 -121 711 -46 l 725 -75 q 684 -103 652 -120 q 621 -136 573 -148 q 526 -160 471 -160 q 389 -160 323 -133 q 257 -105 218 -55 q 178 -5 163 65 q 148 135 167 221 q 184 300 228 371 q 272 443 334 499 q 396 554 479 588 q 561 621 647 621 q 700 621 745 609 q 790 598 824 576 q 858 555 884 525 q 910 495 923 458 q 936 420 939 377 q 942 334 931 287 q 917 218 871 157 q 825 97 763 60 q 700 24 638 24 q 581 24 568 39 q 553 58 559 86 q 532 57 499 42 q 467 26 447 26 q 386 26 361 54 q 331 88 346 158 q 359 220 410 281 q 461 341 525 378 q 589 415 643 415 q 701 415 723 377 l 765 410 l 788 399 l 678 146 q 655 93 652 80 z"},".":{"x_min":0,"x_max":226,"ha":226,"o":"m 40 58 q 40 87 62 108 q 83 129 114 129 q 144 129 165 109 q 186 89 186 60 q 186 32 164 11 q 142 -10 112 -10 q 82 -10 61 10 q 40 30 40 58 z"},"p":{"x_min":0,"x_max":489,"ha":489,"o":"m 266 404 q 325 439 381 439 q 453 439 489 397 q 525 356 525 289 q 525 234 491 163 q 458 92 403 45 q 338 -10 253 -10 q 213 -10 182 23 l 143 -151 q 140 -161 142 -168 q 145 -175 147 -179 q 149 -184 156 -186 q 162 -189 166 -190 q 170 -191 176 -192 l 195 -195 q 201 -196 201 -203 l 201 -233 l 199 -235 q 131 -233 92 -233 l -55 -238 l -57 -236 l -57 -207 q -57 -201 -47 -199 l -28 -196 q -3 -192 9 -182 q 21 -172 25 -151 l 121 293 l 94 271 q 85 263 72 250 q 59 237 49 223 q 41 223 34 230 q 28 237 26 243 q 24 249 21 259 q 41 283 67 306 q 94 330 136 360 l 148 409 q 155 439 182 465 q 209 491 237 491 q 260 491 269 484 q 279 478 279 464 q 279 458 276 448 l 271 424 q 268 411 266 404 z m 397 273 q 397 388 347 388 q 330 388 311 382 q 293 376 282 370 q 271 364 255 354 l 191 75 q 222 32 265 32 q 296 32 322 60 q 349 88 364 128 q 379 168 388 207 q 397 246 397 273 z"},"X":{"x_min":0,"x_max":689,"ha":689,"o":"m 434 89 l 376 246 q 370 263 365 265 q 359 268 350 258 q 299 201 207 82 q 177 38 240 33 q 244 29 241 16 q 238 3 233 -1 q 157 1 116 1 q 66 1 9 -1 q 5 3 8 16 q 11 29 16 33 q 54 37 79 46 q 105 56 129 81 l 327 291 q 342 307 343 315 q 344 323 334 344 l 235 547 q 216 586 200 598 q 184 610 153 613 q 149 617 151 630 q 153 643 158 647 q 216 645 307 645 q 370 645 448 647 q 452 643 449 630 q 447 617 442 613 q 403 611 394 598 q 385 585 397 557 l 446 429 q 450 418 453 414 q 456 409 460 409 q 465 409 471 415 q 528 472 596 564 q 626 608 564 613 q 561 617 562 630 q 564 643 570 647 q 646 645 681 645 q 721 645 779 647 q 782 643 780 630 q 778 617 773 613 q 737 609 713 600 q 688 590 665 565 l 501 389 q 485 372 484 362 q 482 353 493 327 l 597 99 q 615 61 634 48 q 652 36 685 33 q 688 29 687 16 q 685 3 679 -1 q 622 1 543 1 q 471 1 393 -1 q 390 3 392 16 q 395 29 400 33 q 416 34 426 37 q 436 40 440 44 q 445 48 445 55 q 445 62 442 70 q 440 77 434 89 z"},"*":{"x_min":0,"x_max":433,"ha":433,"o":"m 247 566 q 244 566 235 568 q 227 570 223 571 q 219 571 209 571 q 187 567 170 567 q 153 566 145 576 q 137 586 142 608 q 144 620 154 630 q 164 640 179 640 q 193 640 204 632 q 215 623 229 609 q 243 595 257 588 q 260 609 253 638 q 246 667 249 679 q 252 694 266 706 q 279 718 292 718 q 307 718 317 709 q 326 700 323 683 q 320 669 302 636 q 283 603 279 588 q 298 596 316 610 q 334 624 348 633 q 361 642 374 642 q 393 642 400 631 q 406 619 404 608 q 399 587 379 578 q 358 568 330 568 q 296 568 279 565 q 287 554 300 544 q 313 534 323 528 q 333 522 339 510 q 345 498 341 480 q 338 467 327 459 q 315 451 305 451 q 289 451 280 462 q 272 473 271 486 q 269 500 266 520 q 264 540 259 552 q 250 539 240 518 l 224 484 q 218 471 205 461 q 191 451 172 451 q 160 451 154 459 q 148 467 150 479 q 154 498 165 510 q 176 523 188 529 q 200 534 218 544 q 235 554 247 566 z"},"Y":{"x_min":0,"x_max":606,"ha":606,"o":"m 411 122 q 407 99 405 87 q 404 73 407 62 q 410 52 414 46 q 418 41 430 37 q 441 34 453 33 q 465 32 487 31 q 490 26 488 14 q 485 2 480 -2 q 384 0 328 0 q 254 0 160 -2 q 157 2 159 14 q 161 26 166 31 q 192 32 206 33 q 220 35 233 40 q 247 45 253 55 q 260 65 266 81 q 272 96 277 122 l 303 259 q 308 288 307 298 q 306 309 298 332 l 218 547 q 203 587 188 599 q 173 610 141 613 q 138 617 140 630 q 142 643 147 647 q 205 645 282 645 q 324 645 402 647 q 405 643 403 630 q 400 617 395 613 q 356 611 348 598 q 339 585 351 557 l 415 373 q 418 365 422 362 q 427 359 432 361 q 437 363 441 370 l 573 564 q 587 586 577 598 q 566 610 534 613 q 531 617 533 630 q 535 643 540 647 q 616 645 646 645 q 678 645 736 647 q 739 643 737 630 q 734 617 729 613 q 693 609 675 601 q 657 593 637 565 l 472 351 q 460 336 453 318 q 446 299 440 268 z"},"c":{"x_min":0,"x_max":434,"ha":434,"o":"m 421 87 q 386 45 333 18 q 280 -10 235 -10 q 185 -10 154 2 q 123 14 101 42 q 80 69 74 111 q 68 152 78 201 q 93 272 136 329 q 180 385 235 415 q 290 444 345 444 q 417 444 450 414 q 483 383 474 340 q 469 316 451 300 q 433 284 411 284 q 389 284 375 298 q 362 311 364 331 q 365 348 364 364 q 363 379 354 391 q 344 402 328 402 q 291 402 259 359 q 228 317 210 236 q 193 158 217 112 q 241 66 289 66 q 314 66 340 78 q 366 90 400 118 q 406 118 414 106 q 421 94 421 87 z"},"!":{"x_min":0,"x_max":266,"ha":266,"o":"m 257 658 q 285 658 301 639 q 316 619 309 583 q 306 571 301 555 q 296 539 293 531 q 290 522 282 501 q 273 480 272 477 q 210 308 192 230 q 182 188 157 188 q 140 188 137 202 q 134 217 140 242 q 147 278 155 353 q 162 428 164 480 q 167 551 173 583 q 179 609 193 627 q 208 645 225 652 q 241 658 257 658 z m 62 58 q 62 87 84 108 q 106 129 136 129 q 167 129 187 109 q 208 89 208 60 q 208 32 186 11 q 164 -10 134 -10 q 104 -10 83 10 q 62 30 62 58 z"},"/":{"x_min":0,"x_max":296,"ha":296,"o":"m 405 682 l 84 -21 l 24 -21 l 346 682 z"},"[":{"x_min":0,"x_max":397,"ha":397,"o":"m 32 -193 l 222 703 l 461 703 q 465 698 466 688 q 466 678 461 673 q 417 670 390 666 q 364 661 344 655 q 324 648 313 635 q 302 622 295 605 q 288 589 282 561 l 152 -50 q 147 -73 146 -88 q 145 -102 148 -115 q 152 -128 160 -135 q 167 -142 185 -148 q 202 -154 225 -157 q 248 -160 283 -163 q 287 -167 284 -178 q 282 -188 277 -193 z"},"6":{"x_min":0,"x_max":514,"ha":514,"o":"m 227 289 q 217 257 210 208 q 202 160 202 131 q 202 29 270 29 q 302 29 331 79 q 346 106 358 144 q 370 182 370 219 q 370 259 352 287 q 334 315 302 315 q 272 315 227 289 z m 549 569 q 437 563 362 509 q 323 480 291 433 q 258 384 241 331 q 299 359 345 365 q 390 364 422 351 q 454 338 470 318 q 486 297 493 277 q 500 256 500 233 q 500 137 412 54 q 343 -10 250 -10 q 87 -10 87 151 q 87 260 136 359 q 185 458 257 513 q 323 563 388 585 q 454 606 552 610 q 555 604 555 596 q 555 582 549 569 z"},"r":{"x_min":0,"x_max":426,"ha":426,"o":"m 270 228 l 232 72 l 228 53 q 225 39 223 33 q 222 27 217 17 q 212 7 206 2 q 200 -2 189 -6 q 178 -10 163 -10 q 124 -10 110 -3 q 97 3 97 17 q 97 21 100 30 l 105 52 q 108 64 110 72 l 147 243 q 162 313 162 352 q 162 380 144 382 l 104 385 q 100 391 100 404 q 101 417 106 423 q 211 436 272 436 q 282 436 289 429 q 295 422 295 412 q 295 370 283 311 l 286 309 q 317 375 356 407 q 395 439 432 439 q 462 439 478 421 q 494 403 494 380 q 494 353 479 332 q 463 310 440 310 q 422 310 399 336 q 387 352 374 352 q 354 352 330 323 q 307 295 270 228 z"},"2":{"x_min":0,"x_max":514,"ha":514,"o":"m 266 583 q 323 610 389 610 q 454 610 498 578 q 542 545 542 487 q 542 468 539 451 q 536 434 529 417 q 521 400 514 387 q 506 374 490 356 l 463 327 q 451 314 427 294 l 386 260 l 337 221 l 270 168 q 243 146 229 126 q 215 105 208 79 l 330 79 q 362 79 388 101 q 415 124 440 174 q 462 174 480 164 q 446 57 417 0 l 54 0 l 57 32 q 64 55 97 88 q 128 122 229 205 l 326 286 q 374 327 397 374 q 420 420 420 483 q 420 518 403 543 q 385 569 359 569 q 327 569 299 549 q 270 529 266 510 q 263 497 266 484 q 268 468 267 462 q 262 439 242 425 q 222 410 201 410 q 180 410 168 424 q 156 437 156 455 q 156 490 187 525 q 218 561 266 583 z"},"{":{"x_min":0,"x_max":307,"ha":307,"o":"m 322 552 l 294 386 q 284 324 253 294 q 222 265 167 249 l 166 245 q 213 222 230 188 q 248 154 232 95 l 193 -54 q 179 -117 193 -153 q 208 -188 240 -188 q 244 -192 242 -200 q 240 -208 235 -212 q 210 -212 190 -209 q 169 -206 150 -198 q 131 -191 119 -179 q 107 -167 99 -149 q 90 -131 91 -106 q 92 -81 99 -49 l 141 121 q 152 169 136 197 q 121 225 72 231 q 67 237 69 247 q 71 257 79 263 q 128 268 156 298 q 184 328 193 370 l 227 554 q 234 595 255 625 q 276 656 305 673 q 334 690 365 699 q 397 707 430 707 q 434 703 432 695 q 430 688 425 683 q 413 680 405 677 q 397 673 386 667 q 374 661 366 652 q 357 643 348 629 q 339 616 333 596 q 326 577 322 552 z"},"9":{"x_min":0,"x_max":514,"ha":514,"o":"m 391 311 q 401 343 408 392 q 416 440 416 469 q 416 571 349 571 q 315 571 288 521 q 272 494 260 456 q 248 418 248 381 q 248 341 266 313 q 284 285 316 285 q 346 285 391 311 z m 69 31 q 182 37 256 91 q 295 120 328 168 q 361 216 377 270 q 320 241 273 235 q 237 236 209 245 q 181 253 164 267 q 147 280 137 298 q 126 315 123 332 q 119 349 119 366 q 119 463 207 546 q 275 610 368 610 q 531 610 531 449 q 531 340 482 241 q 434 142 361 87 q 295 37 230 16 q 165 -6 66 -10 q 63 -5 63 4 q 63 18 69 31 z"}," ":{"x_min":0,"x_max":250,"ha":250,"o":""},"I":{"x_min":0,"x_max":351,"ha":351,"o":"m 211 523 q 215 543 216 558 q 216 573 213 583 q 209 592 205 598 q 201 604 190 607 q 180 610 172 611 q 164 612 148 613 q 142 617 144 630 q 146 643 155 647 q 231 645 303 645 q 371 645 449 647 q 455 643 453 630 q 450 617 442 613 q 423 612 413 610 q 402 609 390 604 q 377 599 370 589 q 363 580 357 564 q 350 547 345 523 l 267 122 q 263 102 262 87 q 261 72 265 62 q 268 53 272 47 q 276 42 287 38 q 297 35 305 34 q 313 33 329 32 q 335 28 333 15 q 332 2 323 -2 q 247 0 177 0 q 107 0 29 -2 q 23 2 25 15 q 28 28 36 32 q 55 33 65 35 q 76 36 88 41 q 101 46 108 56 q 115 65 121 81 q 128 98 133 122 z"},"H":{"x_min":0,"x_max":735,"ha":735,"o":"m 595 523 q 599 543 600 558 q 601 573 597 583 q 594 592 589 598 q 585 604 575 607 q 564 610 556 611 q 548 612 532 613 q 526 617 529 630 q 531 643 539 647 q 615 645 687 645 q 755 645 833 647 q 839 643 837 630 q 834 617 826 613 q 807 612 797 610 q 787 609 774 604 q 761 599 754 589 q 748 580 741 564 q 734 547 729 523 l 651 122 q 647 102 646 87 q 645 72 648 62 q 652 53 656 47 q 660 42 670 38 q 681 35 689 34 q 697 33 713 32 q 719 28 717 15 q 715 2 707 -2 q 631 0 561 0 q 491 0 413 -2 q 407 2 409 15 q 412 28 420 32 q 439 33 449 35 q 459 36 472 41 q 485 46 492 56 q 499 65 505 81 q 512 98 517 122 l 555 319 l 305 319 l 267 122 q 263 102 262 87 q 261 72 265 62 q 268 53 272 47 q 276 42 287 38 q 297 35 305 34 q 313 33 329 32 q 335 28 333 15 q 332 2 323 -2 q 247 0 177 0 q 107 0 29 -2 q 23 2 25 15 q 28 28 36 32 q 55 33 65 35 q 76 36 88 41 q 101 46 108 56 q 115 65 121 81 q 128 98 133 122 l 211 523 q 215 543 216 558 q 216 573 213 583 q 209 592 205 598 q 201 604 190 607 q 180 610 172 611 q 164 612 148 613 q 142 617 144 630 q 146 643 155 647 q 231 645 303 645 q 371 645 449 647 q 455 643 453 630 q 450 617 442 613 q 423 612 413 610 q 402 609 390 604 q 377 599 370 589 q 363 580 357 564 q 350 547 345 523 l 315 367 l 565 367 z"},"4":{"x_min":0,"x_max":514,"ha":514,"o":"m 356 501 q 297 436 121 209 l 293 209 z m 502 209 q 517 209 513 193 q 511 183 500 173 q 489 162 479 162 l 400 162 l 392 122 q 387 102 387 87 q 386 72 390 62 q 395 53 400 47 q 405 42 416 38 q 427 35 436 34 q 444 33 460 32 q 466 28 464 15 q 461 2 453 -2 l 393 -1 q 361 0 343 0 q 325 0 309 0 l 162 -2 q 155 2 158 15 q 161 28 168 32 q 188 33 198 35 q 209 36 223 41 q 237 46 246 55 q 254 64 262 81 q 270 98 275 122 l 284 162 l 117 162 q 101 162 96 164 q 91 165 88 169 l 78 187 q 76 191 74 197 q 71 202 70 205 q 69 208 69 210 q 70 213 79 223 l 184 349 l 315 506 q 370 569 411 610 l 496 610 l 410 209 z"},"~":{"x_min":0,"x_max":449,"ha":449,"o":"m 63 209 q 83 262 126 307 q 170 352 213 352 q 228 352 247 342 q 266 332 281 320 q 296 308 315 297 q 334 287 349 287 q 363 287 373 288 q 383 290 398 294 q 413 299 426 310 q 439 321 450 339 q 467 341 476 333 q 458 295 437 267 q 415 239 395 225 q 375 211 360 205 q 345 198 335 198 q 317 198 298 208 q 279 219 265 231 q 251 243 233 253 q 214 263 197 263 q 167 263 136 250 q 106 236 85 206 q 71 200 63 209 z"},"D":{"x_min":0,"x_max":698,"ha":698,"o":"m 267 119 q 258 71 274 55 q 291 40 343 40 q 366 40 391 48 q 416 55 444 74 q 471 92 495 119 q 518 146 538 189 q 558 232 568 284 q 575 320 579 350 q 583 379 584 413 q 585 448 581 474 q 577 500 566 525 q 556 551 537 567 q 519 584 489 594 q 459 604 420 604 q 361 604 346 529 z m 177 0 l 29 -2 q 23 2 25 15 q 28 28 36 32 q 55 33 65 35 q 76 36 88 41 q 101 46 108 56 q 115 65 121 81 q 128 98 133 122 l 211 523 q 215 543 216 558 q 216 573 213 583 q 209 592 205 598 q 201 604 190 607 q 180 610 172 611 q 164 612 148 613 q 142 617 144 630 q 146 643 155 647 q 265 645 303 645 q 321 645 363 646 q 405 646 432 646 q 490 646 538 634 q 585 622 619 600 q 653 578 677 547 q 701 516 712 479 q 723 441 726 398 q 728 355 718 309 q 703 234 670 174 q 638 114 596 82 q 540 39 471 18 q 401 -2 332 -2 q 313 -2 254 -1 q 196 0 177 0 z"},"^":{"x_min":0,"x_max":518,"ha":518,"o":"m 328 569 l 194 346 l 140 346 l 327 650 l 366 650 l 417 346 l 364 346 z"},"0":{"x_min":0,"x_max":514,"ha":514,"o":"m 380 565 q 336 565 301 491 q 273 434 244 318 q 215 203 215 118 q 215 33 263 33 q 311 33 354 140 q 375 194 400 299 q 425 404 425 469 q 425 518 413 542 q 400 565 380 565 z m 253 -10 q 176 -10 136 47 q 96 104 96 195 q 96 298 134 390 q 171 482 226 536 q 300 610 390 610 q 421 610 448 600 q 475 590 498 570 q 522 549 536 510 q 549 472 549 420 q 549 324 514 229 q 479 135 434 83 q 392 36 345 13 q 297 -10 253 -10 z"},"F":{"x_min":0,"x_max":518,"ha":518,"o":"m 251 122 q 248 104 247 91 q 247 78 249 68 q 251 59 257 53 q 262 46 268 43 q 273 39 284 37 q 294 35 302 34 q 310 33 323 32 q 329 28 327 15 q 324 2 316 -2 q 240 0 161 0 q 91 0 13 -2 q 7 2 10 15 q 12 28 20 32 q 39 33 49 35 q 60 36 72 41 q 85 46 92 56 q 99 65 105 81 q 112 98 117 122 l 194 522 q 198 543 200 557 q 201 571 199 582 q 196 592 193 598 q 189 603 179 606 q 168 610 158 611 q 148 612 129 613 q 125 617 127 630 q 129 643 135 647 l 283 645 l 571 645 q 596 645 619 649 q 622 649 622 646 q 622 643 618 615 q 614 586 610 550 q 605 514 604 496 q 586 487 562 491 q 559 521 554 538 q 550 556 540 572 q 531 588 514 596 q 497 603 470 603 l 384 603 q 367 603 353 588 q 339 573 335 554 l 295 347 l 373 347 q 423 347 443 358 q 462 369 472 409 q 478 414 494 414 q 510 414 513 409 q 506 379 495 323 q 487 282 479 235 q 474 230 458 230 q 441 230 438 235 q 442 270 427 283 q 411 297 363 297 l 285 297 z"},"`":{"x_min":0,"x_max":392,"ha":392,"o":"m 301 698 l 349 573 q 352 564 352 558 q 352 552 351 549 q 350 545 345 542 q 340 538 335 538 q 327 538 309 558 l 214 667 l 218 677 q 219 677 228 683 q 237 688 243 691 q 250 695 262 698 q 274 701 287 701 q 296 701 301 698 z"},"k":{"x_min":0,"x_max":560,"ha":560,"o":"m 221 72 l 218 58 q 216 48 215 42 q 214 37 211 29 q 208 21 206 16 q 203 12 198 6 q 193 0 187 -3 q 181 -6 172 -8 q 163 -10 152 -10 q 112 -10 99 -3 q 86 3 86 17 q 86 21 88 29 l 93 50 q 97 62 99 72 l 209 563 q 213 581 214 593 q 216 604 214 613 q 211 622 207 627 q 203 631 194 634 q 185 637 174 637 q 164 638 147 638 q 143 652 152 672 q 165 674 204 681 q 243 688 274 693 q 304 698 318 698 q 334 698 341 690 q 348 682 348 665 q 348 656 346 645 q 344 633 340 612 l 333 583 l 265 272 q 284 276 316 303 l 356 337 q 408 383 457 411 q 505 439 531 439 q 562 439 579 421 q 596 402 596 380 q 596 353 581 332 q 565 310 542 310 q 523 310 501 336 q 497 342 494 344 q 491 347 487 349 q 482 352 476 352 q 440 352 400 316 l 348 270 l 349 266 q 372 260 387 244 q 401 229 415 202 q 428 177 456 90 q 462 70 469 61 q 475 52 488 52 q 498 52 512 63 q 526 74 540 94 q 555 94 570 77 q 549 34 511 12 q 474 -10 433 -10 q 403 -10 382 14 q 360 37 334 93 q 325 115 312 160 q 300 205 291 221 q 282 237 271 237 q 262 237 257 236 z"},"u":{"x_min":0,"x_max":646,"ha":646,"o":"m 431 107 l 429 100 q 430 104 434 122 l 432 124 q 368 49 322 21 q 276 -6 232 -6 q 198 -6 171 15 q 144 35 144 76 q 144 117 151 150 l 189 309 q 204 370 186 370 q 177 370 155 357 q 133 343 116 323 q 106 323 98 333 q 89 342 86 351 q 121 395 170 419 q 219 443 271 443 q 292 443 304 435 q 315 427 321 410 q 330 385 313 318 l 276 158 q 272 137 272 118 q 272 100 281 88 q 291 76 308 76 q 316 76 325 79 q 334 83 345 92 q 356 102 365 109 q 373 117 388 136 l 412 166 l 442 205 l 481 361 l 485 380 q 488 394 490 400 q 491 406 496 416 q 501 426 507 431 q 513 435 524 439 q 535 443 550 443 q 589 443 603 436 q 616 430 616 416 q 616 412 614 403 q 611 394 608 381 q 604 368 603 361 l 551 124 q 544 94 544 82 q 544 63 555 63 q 564 63 586 76 q 607 90 625 110 q 634 110 643 100 q 651 91 654 82 q 619 38 573 14 q 528 -10 476 -10 q 438 -10 426 23 q 423 31 423 47 q 423 56 431 107 z"},"]":{"x_min":0,"x_max":397,"ha":397,"o":"m 473 703 l 283 -193 l 44 -193 q 40 -188 40 -178 q 39 -168 44 -163 q 88 -160 115 -156 q 142 -151 162 -145 q 182 -138 193 -125 q 204 -111 210 -95 q 217 -79 223 -51 l 353 560 q 358 583 359 598 q 361 612 357 625 q 354 638 345 645 q 337 652 320 658 q 302 664 280 667 q 258 670 222 673 q 218 677 220 688 q 223 699 228 703 z"},"U":{"x_min":0,"x_max":702,"ha":702,"o":"m 319 522 l 270 269 q 264 239 262 218 q 259 197 258 170 q 257 143 263 121 q 270 99 283 82 q 323 32 387 32 q 421 32 449 40 q 478 48 499 61 q 519 74 536 94 q 554 114 565 134 q 576 153 585 180 q 595 207 600 228 q 605 247 611 277 l 659 522 q 663 543 664 557 q 666 571 663 581 q 661 590 656 596 q 652 601 642 604 q 632 608 620 609 q 608 611 589 613 l 588 613 q 584 617 587 630 q 590 643 595 647 q 691 645 717 645 q 726 645 820 647 q 823 643 821 630 q 818 617 813 613 q 798 611 792 610 q 787 609 776 607 q 766 605 763 603 l 752 596 q 745 591 742 585 l 735 570 q 731 561 728 550 q 726 538 722 522 l 677 295 q 663 224 640 172 q 616 119 579 77 q 542 35 486 12 q 431 -10 359 -10 q 227 -10 173 32 q 100 90 129 236 l 185 522 q 189 543 191 557 q 192 572 190 582 q 188 592 185 597 q 181 603 172 606 q 163 610 154 611 q 146 612 129 613 q 125 617 127 630 q 129 643 135 647 q 230 645 275 645 q 338 645 432 647 q 436 643 433 630 q 430 617 425 613 q 403 612 392 611 q 380 610 368 606 q 355 603 349 598 q 343 592 337 582 q 331 571 327 557 q 323 543 319 522 z"},"o":{"x_min":0,"x_max":479,"ha":479,"o":"m 196 180 q 196 107 213 70 q 231 32 255 32 q 276 32 294 41 q 312 49 323 63 q 335 76 344 96 q 353 116 358 135 q 363 155 366 179 q 369 203 370 221 q 371 240 371 260 q 371 280 371 291 q 371 302 369 321 q 368 340 364 351 q 361 362 355 374 q 350 386 340 391 q 331 397 318 397 q 289 397 267 383 q 244 369 231 347 q 218 325 210 295 q 202 265 199 238 q 196 210 196 180 z m 67 162 q 67 198 79 237 q 90 275 114 312 q 137 348 169 376 q 201 405 244 422 q 288 439 336 439 q 380 439 413 424 q 446 409 464 385 q 482 360 491 333 q 500 306 500 277 q 500 181 456 113 q 412 44 342 9 q 305 -10 230 -10 q 194 -10 165 3 q 135 16 118 35 q 100 55 88 79 q 76 103 72 124 q 67 145 67 162 z"},"N":{"x_min":0,"x_max":709,"ha":709,"o":"m 614 0 q 587 -12 543 -12 q 527 7 513 32 l 268 430 q 256 450 250 450 q 242 450 238 430 l 180 133 q 176 112 175 99 q 174 85 174 74 q 173 64 177 57 q 182 50 186 46 q 189 42 200 39 q 210 37 219 35 q 227 34 244 32 q 248 28 245 15 q 242 2 237 -2 q 141 0 122 0 q 108 0 14 -2 q 11 2 13 15 q 15 28 20 32 q 40 34 51 36 q 62 38 74 42 q 86 46 92 52 q 98 58 104 69 q 111 80 115 95 q 120 109 124 133 l 205 550 q 204 572 187 591 q 169 611 141 613 q 138 617 140 630 q 143 643 148 647 l 312 645 l 378 540 l 571 228 q 576 219 581 216 q 586 212 591 215 q 596 219 598 231 l 652 512 q 655 531 657 542 q 659 555 658 565 q 658 576 657 582 q 656 589 651 594 q 646 600 642 602 q 638 604 628 607 q 618 609 610 610 q 603 611 588 613 q 584 617 587 630 q 590 643 595 647 q 691 645 711 645 q 725 645 819 647 q 822 643 820 630 q 817 617 812 613 q 792 611 781 609 q 771 607 759 603 q 747 599 741 593 q 735 587 729 576 q 722 565 718 550 q 714 536 709 512 l 629 102 z"},"+":{"x_min":0,"x_max":537,"ha":537,"o":"m 369 269 l 525 269 l 509 195 l 353 195 l 318 32 l 241 32 l 275 195 l 119 195 l 134 269 l 291 269 l 326 433 l 403 433 z"},"G":{"x_min":0,"x_max":723,"ha":723,"o":"m 518 658 q 568 658 614 649 q 659 641 693 632 q 727 623 749 623 q 739 516 739 459 l 695 453 q 692 487 680 515 q 667 543 645 567 q 623 590 584 603 q 546 616 496 616 q 458 616 415 598 q 372 580 337 542 q 267 467 239 327 q 232 293 231 259 q 230 226 235 192 q 239 159 253 130 q 266 102 287 80 q 308 58 340 45 q 373 32 414 32 q 453 32 478 41 q 503 50 532 74 l 561 223 q 566 251 551 259 q 536 268 492 271 q 489 275 491 290 q 494 304 499 308 q 589 306 646 306 q 704 306 761 308 q 765 304 762 290 q 759 275 754 271 q 731 269 718 258 q 705 248 700 223 l 678 106 q 675 90 687 78 q 630 38 549 14 q 467 -10 383 -10 q 224 -10 149 66 q 106 108 91 173 q 76 238 90 307 q 105 386 149 452 q 193 518 255 565 q 315 610 384 634 q 454 658 518 658 z"},"q":{"x_min":0,"x_max":491,"ha":491,"o":"m 402 320 q 402 351 385 372 q 368 393 341 393 q 292 393 257 357 q 222 321 206 263 q 190 204 190 128 q 190 88 203 66 q 216 44 235 44 q 263 44 307 88 q 350 132 367 180 q 381 220 391 264 q 402 307 402 320 z m 295 -161 l 361 99 l 358 100 q 314 39 276 15 q 238 -10 198 -10 q 153 -10 121 14 q 89 38 75 73 q 61 107 61 147 q 61 220 96 284 q 129 347 185 388 q 221 414 262 426 q 304 439 340 439 q 398 439 436 386 l 474 419 q 485 430 501 436 q 517 442 524 442 q 544 442 546 426 q 548 410 541 384 l 414 -161 q 412 -168 413 -174 q 414 -180 414 -184 q 415 -188 419 -191 q 422 -194 425 -196 q 428 -197 432 -199 q 437 -200 440 -201 q 442 -202 447 -202 l 466 -205 q 472 -206 472 -213 l 472 -233 l 470 -235 q 359 -233 320 -233 q 304 -233 278 -234 q 251 -235 233 -236 l 215 -238 l 213 -236 l 213 -217 q 213 -211 223 -209 l 242 -206 q 266 -203 278 -192 q 290 -182 295 -161 z"},"d":{"x_min":0,"x_max":561,"ha":561,"o":"m 445 563 q 450 584 450 597 q 451 610 448 619 q 445 627 436 632 q 426 636 415 637 q 403 638 383 638 q 378 651 388 672 q 401 674 440 681 q 479 688 510 693 q 541 698 554 698 q 571 698 577 690 q 584 682 584 665 q 584 656 582 645 q 580 633 575 612 l 569 583 l 468 127 q 461 97 461 84 q 461 66 472 66 q 481 66 503 79 q 524 93 542 113 q 551 113 560 103 q 568 94 571 85 q 532 42 483 16 q 435 -10 385 -10 q 334 -10 334 47 q 334 75 344 117 l 342 118 q 296 51 259 21 q 221 -10 183 -10 q 158 -10 136 0 q 115 10 101 25 q 87 40 77 59 q 67 79 62 98 q 58 117 58 134 q 58 190 85 248 q 112 305 152 346 q 191 387 239 413 q 286 439 325 439 q 353 439 373 423 q 394 408 404 384 l 404 384 z m 382 282 q 385 294 386 300 z m 377 264 l 388 311 q 388 312 388 313 q 388 315 388 316 q 388 345 372 369 q 355 393 328 393 q 285 393 250 354 q 214 315 197 260 q 179 205 179 150 q 179 56 220 56 q 249 56 278 90 q 306 122 346 194 q 366 229 377 264 z"},"1":{"x_min":0,"x_max":514,"ha":514,"o":"m 376 122 q 373 104 373 91 q 373 78 375 69 q 377 60 384 53 q 390 46 396 43 q 402 39 414 37 q 425 35 433 34 q 440 33 454 32 q 460 28 458 15 q 455 2 447 -2 q 293 0 291 0 l 131 -2 q 125 2 127 15 q 130 28 138 32 q 158 33 169 35 q 180 36 196 41 q 212 46 221 55 q 231 64 240 81 q 249 98 254 122 l 321 435 q 326 460 326 471 q 327 483 324 486 q 321 489 314 489 q 272 489 211 464 q 195 479 200 507 l 308 550 q 385 580 421 595 q 453 610 472 610 q 488 610 484 593 q 464 537 453 483 z"},"5":{"x_min":0,"x_max":514,"ha":514,"o":"m 358 259 q 358 298 340 318 q 323 338 296 338 q 262 338 238 332 q 214 325 162 304 l 151 312 l 252 610 q 269 608 310 604 q 351 600 373 600 q 393 600 413 601 q 434 603 447 604 q 461 605 489 608 l 535 613 l 554 600 l 518 514 q 423 508 408 508 q 327 508 273 513 q 264 489 227 381 q 246 385 282 390 q 319 394 341 394 q 410 394 448 358 q 487 322 487 262 q 487 146 389 57 q 316 -10 227 -10 q 139 -10 95 18 q 67 36 67 63 q 67 85 84 102 q 101 118 126 118 q 150 118 166 107 q 182 96 188 79 q 206 34 230 34 q 271 34 303 77 q 324 105 341 158 q 358 212 358 259 z"}}}
